<svg width="26" height="30" viewBox="0 0 26 30" fill="none" xmlns="http://www.w3.org/2000/svg">
<path fill-rule="evenodd" clip-rule="evenodd" d="M2.34177 19.5478C4.2037 16.9522 7.50127 15 12.9998 15C18.4983 15 21.7959 16.9522 23.6578 19.5478C25.4574 22.0563 25.744 24.9316 25.7497 26.5226C25.7555 28.1224 24.4142 29.1667 23.0391 29.1667H2.96053C1.5854 29.1667 0.244142 28.1224 0.249896 26.5226C0.255619 24.9316 0.542237 22.0563 2.34177 19.5478Z" fill="#22A74F"/>
<path fill-rule="evenodd" clip-rule="evenodd" d="M12.9999 12.1667C16.1296 12.1667 18.6666 9.62962 18.6666 6.50001C18.6666 3.3704 16.1296 0.833344 12.9999 0.833344C9.87033 0.833344 7.33328 3.3704 7.33328 6.50001C7.33328 9.62962 9.87033 12.1667 12.9999 12.1667Z" fill="#22A74F"/>
</svg>
