<?xml version="1.0" encoding="utf-8"?>
<!-- Generator: Adobe Illustrator 26.2.1, SVG Export Plug-In . SVG Version: 6.00 Build 0)  -->
<svg version="1.1" id="Layer_1" xmlns="http://www.w3.org/2000/svg" xmlns:xlink="http://www.w3.org/1999/xlink" x="0px" y="0px"
	 viewBox="0 0 74 37" style="enable-background:new 0 0 74 37;" xml:space="preserve">
<style type="text/css">
	.st0{fill:#FFFFFF;stroke:#FFFFFF;stroke-miterlimit:10;}
	.st1{fill:#FFFFFF;stroke:#FFFFFF;stroke-width:0.5;}
	.st2{fill:#FFFFFF;}
	.st3{fill:#040921;}
</style>
<path class="st0" d="M46,22.1v-0.3l0.2-0.1c0.2-0.1,0.3-0.1,0.3-0.2c0.1-0.1,0.1-0.2,0.1-0.4c0-0.5,0-1,0-1.5c0-0.5,0-1,0-1.5v-0.5
	c0-0.5,0-1,0-1.5c0-0.5,0-1,0-1.5c0-0.2,0-0.3-0.1-0.4c0-0.1-0.1-0.2-0.3-0.2L46,13.8v-0.3h6.3l0.1,2.2H52l-0.7-1.3
	c-0.1-0.2-0.2-0.3-0.3-0.4c-0.1-0.1-0.3-0.1-0.5-0.1h-2c0,0.6,0,1.2,0,1.8c0,0.6,0,1.2,0,1.8h1.2c0.2,0,0.3,0,0.4-0.1
	c0.1-0.1,0.2-0.2,0.3-0.4l0.3-0.5h0.3v2.4h-0.3l-0.3-0.5c-0.1-0.2-0.2-0.3-0.3-0.4c-0.1-0.1-0.2-0.1-0.4-0.1h-1.2c0,0.6,0,1.1,0,1.7
	c0,0.5,0,1,0,1.5c0,0.4,0.2,0.6,0.5,0.7l0.4,0.1v0.3H46z"/>
<path class="st0" d="M55.2,15c-0.3,0-0.5-0.1-0.7-0.3c-0.2-0.2-0.3-0.4-0.3-0.7c0-0.3,0.1-0.5,0.3-0.7c0.2-0.2,0.4-0.3,0.7-0.3
	s0.5,0.1,0.7,0.3c0.2,0.2,0.3,0.4,0.3,0.7c0,0.3-0.1,0.5-0.3,0.7C55.8,14.9,55.5,15,55.2,15z M53.7,22.1v-0.2l0.2-0.1
	c0.2-0.1,0.3-0.1,0.4-0.2c0.1-0.1,0.1-0.2,0.1-0.4v-2.4c0-0.3,0-0.5,0-0.7c0-0.2,0-0.5,0-0.7c0-0.2,0-0.3-0.1-0.4
	c-0.1-0.1-0.2-0.2-0.4-0.2l-0.2,0v-0.2l2.3-0.8l0.2,0.1l0,1.8v3.5c0,0.2,0,0.3,0.1,0.4c0.1,0.1,0.2,0.2,0.4,0.2l0.1,0v0.2H53.7z"/>
<path class="st0" d="M58.4,22.1v-0.2l0.2-0.1c0.3-0.1,0.4-0.3,0.4-0.6v-6.7c0-0.2,0-0.3-0.1-0.4c-0.1-0.1-0.2-0.2-0.4-0.2l-0.2-0.1
	v-0.2l2.3-0.5l0.2,0.1l-0.1,1.8v6.2c0,0.3,0.1,0.6,0.4,0.6l0.2,0.1v0.2H58.4z M63.1,22.1l-2.4-3.2l2.3-2.1c0.1-0.1,0.2-0.2,0.2-0.3
	c0-0.1-0.1-0.2-0.2-0.2l-0.2-0.1v-0.2h2v0.2l-0.4,0.1c-0.2,0.1-0.3,0.1-0.5,0.2c-0.1,0.1-0.3,0.2-0.4,0.4l-1.4,1.3l2.2,3
	c0.1,0.2,0.3,0.3,0.4,0.4c0.1,0.1,0.3,0.2,0.5,0.2l0.1,0v0.2H63.1z"/>
<path class="st0" d="M68.7,22.3c-0.5,0-0.9-0.1-1.3-0.4c-0.3-0.3-0.5-0.7-0.5-1.2c0-0.4,0.2-0.8,0.6-1.1c0.4-0.4,1-0.6,1.9-0.8
	c0.1,0,0.3-0.1,0.5-0.1c0.2,0,0.4-0.1,0.6-0.1v-0.9c0-0.6-0.1-1-0.2-1.2c-0.1-0.2-0.4-0.3-0.7-0.3h0c-0.2,0-0.4,0.1-0.5,0.2
	c-0.1,0.1-0.2,0.3-0.2,0.6l0,0.2c0,0.3-0.1,0.6-0.3,0.8C68.4,18,68.2,18,67.9,18c-0.2,0-0.4-0.1-0.5-0.2c-0.1-0.1-0.2-0.3-0.2-0.5
	c0-0.4,0.1-0.7,0.4-0.9c0.2-0.2,0.6-0.4,1-0.5c0.4-0.1,0.8-0.2,1.3-0.2c0.8,0,1.4,0.2,1.8,0.6c0.4,0.4,0.6,1,0.6,1.8V21
	c0,0.4,0.2,0.6,0.5,0.6H73l0.1,0.1c-0.2,0.2-0.3,0.4-0.5,0.5c-0.2,0.1-0.5,0.2-0.8,0.2c-0.4,0-0.7-0.1-0.9-0.3
	c-0.2-0.2-0.4-0.4-0.4-0.7c-0.3,0.3-0.6,0.5-0.8,0.7C69.5,22.2,69.1,22.3,68.7,22.3z M69.4,21.5c0.2,0,0.3,0,0.5-0.1
	c0.2-0.1,0.4-0.2,0.6-0.4v-2.1c-0.2,0-0.5,0.1-0.7,0.1c-0.4,0.1-0.7,0.2-0.9,0.5c-0.2,0.2-0.3,0.6-0.3,0.9c0,0.3,0.1,0.6,0.2,0.8
	C69,21.4,69.2,21.5,69.4,21.5z"/>
<path class="st1" d="M46,22.1v-0.3l0.2-0.1c0.2-0.1,0.3-0.1,0.3-0.2c0.1-0.1,0.1-0.2,0.1-0.4c0-0.5,0-1,0-1.5c0-0.5,0-1,0-1.5v-0.5
	c0-0.5,0-1,0-1.5c0-0.5,0-1,0-1.5c0-0.2,0-0.3-0.1-0.4c0-0.1-0.1-0.2-0.3-0.2L46,13.8v-0.3h6.3l0.1,2.2H52l-0.7-1.3
	c-0.1-0.2-0.2-0.3-0.3-0.4c-0.1-0.1-0.3-0.1-0.5-0.1h-2c0,0.6,0,1.2,0,1.8c0,0.6,0,1.2,0,1.8h1.2c0.2,0,0.3,0,0.4-0.1
	c0.1-0.1,0.2-0.2,0.3-0.4l0.3-0.5h0.3v2.4h-0.3l-0.3-0.5c-0.1-0.2-0.2-0.3-0.3-0.4c-0.1-0.1-0.2-0.1-0.4-0.1h-1.2c0,0.6,0,1.1,0,1.7
	c0,0.5,0,1,0,1.5c0,0.4,0.2,0.6,0.5,0.7l0.4,0.1v0.3H46z"/>
<path class="st1" d="M55.2,15c-0.3,0-0.5-0.1-0.7-0.3c-0.2-0.2-0.3-0.4-0.3-0.7c0-0.3,0.1-0.5,0.3-0.7c0.2-0.2,0.4-0.3,0.7-0.3
	s0.5,0.1,0.7,0.3c0.2,0.2,0.3,0.4,0.3,0.7c0,0.3-0.1,0.5-0.3,0.7C55.8,14.9,55.5,15,55.2,15z M53.7,22.1v-0.2l0.2-0.1
	c0.2-0.1,0.3-0.1,0.4-0.2c0.1-0.1,0.1-0.2,0.1-0.4v-2.4c0-0.3,0-0.5,0-0.7c0-0.2,0-0.5,0-0.7c0-0.2,0-0.3-0.1-0.4
	c-0.1-0.1-0.2-0.2-0.4-0.2l-0.2,0v-0.2l2.3-0.8l0.2,0.1l0,1.8v3.5c0,0.2,0,0.3,0.1,0.4c0.1,0.1,0.2,0.2,0.4,0.2l0.1,0v0.2H53.7z"/>
<path class="st1" d="M58.4,22.1v-0.2l0.2-0.1c0.3-0.1,0.4-0.3,0.4-0.6v-6.7c0-0.2,0-0.3-0.1-0.4c-0.1-0.1-0.2-0.2-0.4-0.2l-0.2-0.1
	v-0.2l2.3-0.5l0.2,0.1l-0.1,1.8v6.2c0,0.3,0.1,0.6,0.4,0.6l0.2,0.1v0.2H58.4z M63.1,22.1l-2.4-3.2l2.3-2.1c0.1-0.1,0.2-0.2,0.2-0.3
	c0-0.1-0.1-0.2-0.2-0.2l-0.2-0.1v-0.2h2v0.2l-0.4,0.1c-0.2,0.1-0.3,0.1-0.5,0.2c-0.1,0.1-0.3,0.2-0.4,0.4l-1.4,1.3l2.2,3
	c0.1,0.2,0.3,0.3,0.4,0.4c0.1,0.1,0.3,0.2,0.5,0.2l0.1,0v0.2H63.1z"/>
<path class="st1" d="M68.7,22.3c-0.5,0-0.9-0.1-1.3-0.4c-0.3-0.3-0.5-0.7-0.5-1.2c0-0.4,0.2-0.8,0.6-1.1c0.4-0.4,1-0.6,1.9-0.8
	c0.1,0,0.3-0.1,0.5-0.1c0.2,0,0.4-0.1,0.6-0.1v-0.9c0-0.6-0.1-1-0.2-1.2c-0.1-0.2-0.4-0.3-0.7-0.3h0c-0.2,0-0.4,0.1-0.5,0.2
	c-0.1,0.1-0.2,0.3-0.2,0.6l0,0.2c0,0.3-0.1,0.6-0.3,0.8C68.4,18,68.2,18,67.9,18c-0.2,0-0.4-0.1-0.5-0.2c-0.1-0.1-0.2-0.3-0.2-0.5
	c0-0.4,0.1-0.7,0.4-0.9c0.2-0.2,0.6-0.4,1-0.5c0.4-0.1,0.8-0.2,1.3-0.2c0.8,0,1.4,0.2,1.8,0.6c0.4,0.4,0.6,1,0.6,1.8V21
	c0,0.4,0.2,0.6,0.5,0.6H73l0.1,0.1c-0.2,0.2-0.3,0.4-0.5,0.5c-0.2,0.1-0.5,0.2-0.8,0.2c-0.4,0-0.7-0.1-0.9-0.3
	c-0.2-0.2-0.4-0.4-0.4-0.7c-0.3,0.3-0.6,0.5-0.8,0.7C69.5,22.2,69.1,22.3,68.7,22.3z M69.4,21.5c0.2,0,0.3,0,0.5-0.1
	c0.2-0.1,0.4-0.2,0.6-0.4v-2.1c-0.2,0-0.5,0.1-0.7,0.1c-0.4,0.1-0.7,0.2-0.9,0.5c-0.2,0.2-0.3,0.6-0.3,0.9c0,0.3,0.1,0.6,0.2,0.8
	C69,21.4,69.2,21.5,69.4,21.5z"/>
<path class="st2" d="M5,15C5,7.8,10.8,2,18,2h6c7.2,0,13,5.8,13,13v6c0,7.2-5.8,13-13,13h-6c-7.2,0-13-5.8-13-13V15z"/>
<path class="st3" d="M14.7,16.3c-1.1-3,0.5-6.4,3.5-7.5l8.9-3.2l0,0c1.1,3-0.5,6.4-3.5,7.5L14.7,16.3L14.7,16.3z"/>
<path class="st3" d="M14.7,23.4c-1.1-3,0.5-6.4,3.5-7.5l3.4-1.2l0,0c1.1,3-0.5,6.4-3.5,7.5L14.7,23.4L14.7,23.4z"/>
<path class="st3" d="M14.7,30.4c-1.1-3,0.5-6.4,3.5-7.5l0,0l0,0C19.3,26,17.7,29.3,14.7,30.4L14.7,30.4L14.7,30.4z"/>
</svg>
