<svg width="30" height="30" viewBox="0 0 30 30" fill="none" xmlns="http://www.w3.org/2000/svg">
<path fill-rule="evenodd" clip-rule="evenodd" d="M29.1667 15C29.1667 22.824 22.8241 29.1666 15 29.1666C7.17601 29.1666 0.833374 22.824 0.833374 15C0.833374 7.17595 7.17601 0.833313 15 0.833313C22.8241 0.833313 29.1667 7.17595 29.1667 15ZM11.0974 25.6435C10.9361 25.2684 10.7875 24.8733 10.6509 24.4636C10.2483 23.2559 9.92607 21.8458 9.70105 20.299C8.15418 20.0739 6.74408 19.7517 5.53644 19.3492C5.12669 19.2126 4.73161 19.0639 4.35655 18.9026C5.50081 22.0224 7.97763 24.4992 11.0974 25.6435ZM4.35655 11.0974C5.50081 7.97757 7.97763 5.50075 11.0974 4.35649C10.9361 4.73155 10.7875 5.12663 10.6509 5.53638C10.2483 6.74402 9.92607 8.15412 9.70105 9.70099C8.15418 9.92601 6.74408 10.2483 5.53644 10.6508C5.12669 10.7874 4.73161 10.936 4.35655 11.0974ZM18.9027 4.35649C19.064 4.73155 19.2126 5.12663 19.3492 5.53638C19.7518 6.74402 20.074 8.15412 20.299 9.70099C21.8459 9.92601 23.256 10.2483 24.4636 10.6508C24.8734 10.7874 25.2685 10.936 25.6435 11.0974C24.4993 7.97757 22.0224 5.50075 18.9027 4.35649ZM25.6435 18.9026C25.2685 19.0639 24.8734 19.2126 24.4636 19.3492C23.256 19.7517 21.8459 20.0739 20.299 20.299C20.074 21.8458 19.7518 23.2559 19.3492 24.4636C19.2126 24.8733 19.064 25.2684 18.9027 25.6435C22.0224 24.4992 24.4993 22.0224 25.6435 18.9026ZM14.9997 3.66665C15.2004 3.66603 15.4388 3.99825 15.5417 4.12882C15.9103 4.59657 16.3042 5.36121 16.6613 6.43236C16.9466 7.28844 17.1921 8.29054 17.3836 9.40476C16.6076 9.35768 15.8109 9.33331 15 9.33331C14.1892 9.33331 13.3925 9.35768 12.6164 9.40476C12.8079 8.29054 13.0534 7.28844 13.3388 6.43236C13.6959 5.36121 14.0898 4.59657 14.4584 4.12882C14.562 3.99735 14.7983 3.66789 14.9997 3.66665ZM4.12888 15.5416C4.59663 15.9102 5.36127 16.3042 6.43242 16.6612C7.28851 16.9466 8.2906 17.1921 9.40482 17.3836C9.35774 16.6075 9.33337 15.8109 9.33337 15C9.33337 14.1891 9.35774 13.3924 9.40482 12.6164C8.2906 12.8079 7.28851 13.0534 6.43242 13.3387C5.36127 13.6958 4.59663 14.0897 4.12888 14.4584C3.86022 14.6701 3.66644 14.8346 3.66671 15C3.66698 15.1639 3.85889 15.3288 4.12888 15.5416ZM12.1667 15C12.1667 15.9434 12.2021 16.8576 12.2684 17.7317C13.1424 17.7979 14.0566 17.8333 15 17.8333C15.9435 17.8333 16.8577 17.7979 17.7317 17.7317C17.798 16.8576 17.8334 15.9434 17.8334 15C17.8334 14.0566 17.798 13.1423 17.7317 12.2683C16.8577 12.2021 15.9435 12.1666 15 12.1666C14.0566 12.1666 13.1424 12.2021 12.2684 12.2683C12.2021 13.1423 12.1667 14.0566 12.1667 15ZM13.3388 23.5676C13.0534 22.7115 12.8079 21.7094 12.6164 20.5952C13.3925 20.6423 14.1892 20.6666 15 20.6666C15.8109 20.6666 16.6076 20.6423 17.3836 20.5952C17.1921 21.7094 16.9466 22.7115 16.6613 23.5676C16.3042 24.6388 15.9103 25.4034 15.5417 25.8711C15.2782 26.2055 15.1136 26.325 15 26.3248C14.8885 26.3247 14.7225 26.2062 14.4584 25.8711C14.0898 25.4034 13.6959 24.6388 13.3388 23.5676ZM23.5677 16.6612C22.7116 16.9466 21.7095 17.1921 20.5953 17.3836C20.6423 16.6075 20.6667 15.8109 20.6667 15C20.6667 14.1891 20.6423 13.3924 20.5953 12.6164C21.7095 12.8079 22.7116 13.0534 23.5677 13.3387C24.6388 13.6958 25.4035 14.0897 25.8712 14.4584C26.2105 14.7258 26.3334 14.8229 26.3334 15C26.3334 15.1771 25.9743 15.4604 25.8712 15.5416C25.4035 15.9102 24.6388 16.3042 23.5677 16.6612Z" fill="#22A74F"/>
</svg>
