<svg width="1160" height="568" viewBox="0 0 1160 568" fill="none" xmlns="http://www.w3.org/2000/svg">
<path d="M1089.85 341.216C1047.28 395.315 826.242 452.851 757.5 398.754C688.758 344.658 682.128 127.348 798.355 77.216C887.337 38.8354 965.741 99.4038 1034.48 153.5C1103.23 207.596 1132.43 287.117 1089.85 341.216Z" fill="url(#paint0_linear_10_768)"/>
<path d="M398.43 491.874C386.781 462.421 415.094 361.222 452.519 346.42C489.944 331.619 630.163 442.178 576.989 465.928C529.852 486.981 515.616 519.676 491.982 542.137C454.557 556.938 410.079 521.327 398.43 491.874Z" fill="url(#paint1_linear_10_768)"/>
<path d="M844.985 482C836.546 492.724 815.485 514.5 802.103 506.406C788.721 498.311 802.396 457.866 824.629 446.237C842.331 436.977 874.485 435 875.629 450.237C876.772 465.474 853.425 471.276 844.985 482Z" fill="url(#paint2_linear_10_768)"/>
<path d="M834.12 524.325C830.436 529.007 823.358 540.179 828.166 545.027C832.974 549.874 848.732 539.92 851.385 529.292C853.497 520.83 851.036 506.983 844.453 508.062C837.87 509.141 837.805 519.644 834.12 524.325Z" fill="url(#paint3_linear_10_768)"/>
<path d="M126.135 123.325C122.451 128.007 115.373 139.179 120.181 144.027C124.989 148.874 140.747 138.92 143.4 128.292C145.512 119.83 143.051 105.983 136.468 107.062C129.885 108.141 129.82 118.644 126.135 123.325Z" fill="url(#paint4_linear_10_768)"/>
<path d="M0.979163 519.17C0.125572 537.016 22.4851 556 36.147 548.061C49.809 540.122 43.9851 527 39.5772 519.499C35.1694 511.999 27.6229 508.337 17.5221 506.978C6.14985 505.448 1.19068 512.716 0.979163 519.17Z" fill="url(#paint5_linear_10_768)"/>
<defs>
<linearGradient id="paint0_linear_10_768" x1="970.71" y1="191.314" x2="793.144" y2="416.954" gradientUnits="userSpaceOnUse">
<stop offset="0.5" stop-color="#B9DDE9"/>
<stop offset="1" stop-color="white"/>
</linearGradient>
<linearGradient id="paint1_linear_10_768" x1="497.482" y1="506.15" x2="448.897" y2="383.307" gradientUnits="userSpaceOnUse">
<stop offset="0.5" stop-color="#B9DDE9"/>
<stop offset="1" stop-color="white"/>
</linearGradient>
<linearGradient id="paint2_linear_10_768" x1="860.914" y1="434.678" x2="803.523" y2="507.607" gradientUnits="userSpaceOnUse">
<stop stop-color="#B9DDE9"/>
<stop offset="1" stop-color="#FBFBFB"/>
</linearGradient>
<linearGradient id="paint3_linear_10_768" x1="852.565" y1="512.709" x2="827.51" y2="544.547" gradientUnits="userSpaceOnUse">
<stop offset="0.166667" stop-color="#B9DDE9"/>
<stop offset="1" stop-color="white"/>
</linearGradient>
<linearGradient id="paint4_linear_10_768" x1="144.58" y1="111.709" x2="119.525" y2="143.547" gradientUnits="userSpaceOnUse">
<stop offset="0.166667" stop-color="#B9DDE9"/>
<stop offset="1" stop-color="white"/>
</linearGradient>
<linearGradient id="paint5_linear_10_768" x1="-0.014922" y1="550" x2="41.4851" y2="496.5" gradientUnits="userSpaceOnUse">
<stop offset="0.0729167" stop-color="#B9DDE9"/>
<stop offset="1" stop-color="white" stop-opacity="0.29"/>
</linearGradient>
</defs>
</svg>
