<svg width="34" height="34" viewBox="0 0 34 34" fill="none" xmlns="http://www.w3.org/2000/svg">
<path fill-rule="evenodd" clip-rule="evenodd" d="M6.34181 21.5477C8.20375 18.9522 11.5013 17 16.9999 17C22.4984 17 25.796 18.9522 27.6579 21.5477C29.4574 24.0563 29.744 26.9315 29.7498 28.5225C29.7555 30.1224 28.4143 31.1666 27.0391 31.1666H6.96058C5.58545 31.1666 4.24419 30.1224 4.24994 28.5225C4.25566 26.9315 4.54228 24.0563 6.34181 21.5477Z" fill="white"/>
<path fill-rule="evenodd" clip-rule="evenodd" d="M17 14.1666C20.1296 14.1666 22.6667 11.6296 22.6667 8.49998C22.6667 5.37037 20.1296 2.83331 17 2.83331C13.8704 2.83331 11.3333 5.37037 11.3333 8.49998C11.3333 11.6296 13.8704 14.1666 17 14.1666Z" fill="white"/>
</svg>
